<svg width="106" height="24" viewBox="0 0 106 24" fill="none" xmlns="http://www.w3.org/2000/svg">
<path fill-rule="evenodd" clip-rule="evenodd" d="M2.87187 11.5983C1.79887 8.24832 3.05287 4.41932 6.56987 3.28632C8.41987 2.68932 10.4619 3.04132 11.9999 4.19832C13.4549 3.07332 15.5719 2.69332 17.4199 3.28632C20.9369 4.41932 22.1989 8.24832 21.1269 11.5983C19.4569 16.9083 11.9999 20.9983 11.9999 20.9983C11.9999 20.9983 4.59787 16.9703 2.87187 11.5983Z" stroke="#AAAAAA" stroke-width="1.5" stroke-linecap="round" stroke-linejoin="round"/>
<path d="M32.576 16.12C32.072 16.12 31.632 16.06 31.256 15.94C30.88 15.812 30.564 15.644 30.308 15.436C30.052 15.228 29.856 15 29.72 14.752C29.592 14.504 29.524 14.248 29.516 13.984C29.516 13.912 29.54 13.856 29.588 13.816C29.636 13.776 29.696 13.756 29.768 13.756H30.356C30.428 13.756 30.492 13.772 30.548 13.804C30.604 13.836 30.652 13.904 30.692 14.008C30.772 14.296 30.908 14.52 31.1 14.68C31.3 14.84 31.528 14.952 31.784 15.016C32.048 15.072 32.312 15.1 32.576 15.1C33.128 15.1 33.576 14.968 33.92 14.704C34.264 14.44 34.436 14.052 34.436 13.54C34.436 13.02 34.28 12.648 33.968 12.424C33.656 12.2 33.224 12.088 32.672 12.088H31.532C31.452 12.088 31.384 12.064 31.328 12.016C31.28 11.968 31.256 11.9 31.256 11.812V11.488C31.256 11.416 31.268 11.356 31.292 11.308C31.324 11.252 31.356 11.204 31.388 11.164L33.716 8.62H30.176C30.096 8.62 30.028 8.596 29.972 8.548C29.924 8.5 29.9 8.432 29.9 8.344V7.888C29.9 7.8 29.924 7.732 29.972 7.684C30.028 7.628 30.096 7.6 30.176 7.6H34.964C35.052 7.6 35.12 7.628 35.168 7.684C35.224 7.732 35.252 7.8 35.252 7.888V8.32C35.252 8.376 35.236 8.428 35.204 8.476C35.18 8.516 35.152 8.556 35.12 8.596L32.804 11.176L32.996 11.188C33.524 11.204 33.984 11.3 34.376 11.476C34.776 11.652 35.084 11.916 35.3 12.268C35.524 12.612 35.636 13.048 35.636 13.576C35.636 14.112 35.504 14.572 35.24 14.956C34.976 15.332 34.612 15.62 34.148 15.82C33.684 16.02 33.16 16.12 32.576 16.12ZM40.011 16.12C39.459 16.12 38.991 16.036 38.607 15.868C38.231 15.692 37.923 15.452 37.683 15.148C37.443 14.844 37.267 14.496 37.155 14.104C37.051 13.712 36.991 13.296 36.975 12.856C36.967 12.64 36.959 12.412 36.951 12.172C36.951 11.932 36.951 11.692 36.951 11.452C36.959 11.204 36.967 10.968 36.975 10.744C36.983 10.304 37.043 9.888 37.155 9.496C37.275 9.096 37.451 8.748 37.683 8.452C37.923 8.148 38.235 7.912 38.619 7.744C39.003 7.568 39.467 7.48 40.011 7.48C40.563 7.48 41.027 7.568 41.403 7.744C41.787 7.912 42.099 8.148 42.339 8.452C42.579 8.748 42.755 9.096 42.867 9.496C42.987 9.888 43.051 10.304 43.059 10.744C43.067 10.968 43.071 11.204 43.071 11.452C43.079 11.692 43.079 11.932 43.071 12.172C43.071 12.412 43.067 12.64 43.059 12.856C43.051 13.296 42.987 13.712 42.867 14.104C42.755 14.496 42.579 14.844 42.339 15.148C42.107 15.452 41.799 15.692 41.415 15.868C41.039 16.036 40.571 16.12 40.011 16.12ZM40.011 15.1C40.635 15.1 41.095 14.896 41.391 14.488C41.695 14.072 41.851 13.508 41.859 12.796C41.875 12.564 41.883 12.34 41.883 12.124C41.883 11.9 41.883 11.68 41.883 11.464C41.883 11.24 41.875 11.02 41.859 10.804C41.851 10.108 41.695 9.552 41.391 9.136C41.095 8.712 40.635 8.5 40.011 8.5C39.395 8.5 38.935 8.712 38.631 9.136C38.335 9.552 38.179 10.108 38.163 10.804C38.163 11.02 38.159 11.24 38.151 11.464C38.151 11.68 38.151 11.9 38.151 12.124C38.159 12.34 38.163 12.564 38.163 12.796C38.179 13.508 38.339 14.072 38.643 14.488C38.947 14.896 39.403 15.1 40.011 15.1ZM47.6282 16.12C47.0762 16.12 46.6082 16.036 46.2242 15.868C45.8482 15.692 45.5402 15.452 45.3002 15.148C45.0602 14.844 44.8842 14.496 44.7722 14.104C44.6682 13.712 44.6082 13.296 44.5922 12.856C44.5842 12.64 44.5762 12.412 44.5682 12.172C44.5682 11.932 44.5682 11.692 44.5682 11.452C44.5762 11.204 44.5842 10.968 44.5922 10.744C44.6002 10.304 44.6602 9.888 44.7722 9.496C44.8922 9.096 45.0682 8.748 45.3002 8.452C45.5402 8.148 45.8522 7.912 46.2362 7.744C46.6202 7.568 47.0842 7.48 47.6282 7.48C48.1802 7.48 48.6442 7.568 49.0202 7.744C49.4042 7.912 49.7162 8.148 49.9562 8.452C50.1962 8.748 50.3722 9.096 50.4842 9.496C50.6042 9.888 50.6682 10.304 50.6762 10.744C50.6842 10.968 50.6882 11.204 50.6882 11.452C50.6962 11.692 50.6962 11.932 50.6882 12.172C50.6882 12.412 50.6842 12.64 50.6762 12.856C50.6682 13.296 50.6042 13.712 50.4842 14.104C50.3722 14.496 50.1962 14.844 49.9562 15.148C49.7242 15.452 49.4162 15.692 49.0322 15.868C48.6562 16.036 48.1882 16.12 47.6282 16.12ZM47.6282 15.1C48.2522 15.1 48.7122 14.896 49.0082 14.488C49.3122 14.072 49.4682 13.508 49.4762 12.796C49.4922 12.564 49.5002 12.34 49.5002 12.124C49.5002 11.9 49.5002 11.68 49.5002 11.464C49.5002 11.24 49.4922 11.02 49.4762 10.804C49.4682 10.108 49.3122 9.552 49.0082 9.136C48.7122 8.712 48.2522 8.5 47.6282 8.5C47.0122 8.5 46.5522 8.712 46.2482 9.136C45.9522 9.552 45.7962 10.108 45.7802 10.804C45.7802 11.02 45.7762 11.24 45.7682 11.464C45.7682 11.68 45.7682 11.9 45.7682 12.124C45.7762 12.34 45.7802 12.564 45.7802 12.796C45.7962 13.508 45.9562 14.072 46.2602 14.488C46.5642 14.896 47.0202 15.1 47.6282 15.1Z" fill="#AAAAAA"/>
<path fill-rule="evenodd" clip-rule="evenodd" d="M76.0714 19.0699C73.0152 22.1263 68.4898 22.7867 64.7864 21.074C64.2397 20.8539 63.7915 20.676 63.3654 20.676C62.1785 20.683 60.7012 21.8339 59.9334 21.067C59.1656 20.2991 60.3173 18.8206 60.3173 17.6266C60.3173 17.2004 60.1464 16.7602 59.9263 16.2124C58.2128 12.5096 58.8741 7.98269 61.9303 4.92721C65.8316 1.02443 72.17 1.02443 76.0714 4.9262C79.9797 8.83501 79.9727 15.1681 76.0714 19.0699Z" stroke="#AAAAAA" stroke-width="1.5" stroke-linecap="round" stroke-linejoin="round"/>
<path d="M89.312 16C89.232 16 89.164 15.976 89.108 15.928C89.06 15.872 89.036 15.804 89.036 15.724V9.004L87.044 10.54C86.98 10.588 86.912 10.608 86.84 10.6C86.768 10.592 86.708 10.556 86.66 10.492L86.348 10.096C86.3 10.024 86.28 9.952 86.288 9.88C86.304 9.808 86.344 9.748 86.408 9.7L89.024 7.684C89.08 7.644 89.132 7.62 89.18 7.612C89.228 7.604 89.28 7.6 89.336 7.6H89.948C90.028 7.6 90.092 7.628 90.14 7.684C90.188 7.732 90.212 7.796 90.212 7.876V15.724C90.212 15.804 90.188 15.872 90.14 15.928C90.092 15.976 90.028 16 89.948 16H89.312ZM94.9368 16.12C94.3848 16.12 93.9168 16.036 93.5328 15.868C93.1568 15.692 92.8488 15.452 92.6088 15.148C92.3688 14.844 92.1928 14.496 92.0808 14.104C91.9768 13.712 91.9168 13.296 91.9008 12.856C91.8928 12.64 91.8848 12.412 91.8768 12.172C91.8768 11.932 91.8768 11.692 91.8768 11.452C91.8848 11.204 91.8928 10.968 91.9008 10.744C91.9088 10.304 91.9688 9.888 92.0808 9.496C92.2008 9.096 92.3768 8.748 92.6088 8.452C92.8488 8.148 93.1608 7.912 93.5448 7.744C93.9288 7.568 94.3928 7.48 94.9368 7.48C95.4888 7.48 95.9528 7.568 96.3288 7.744C96.7128 7.912 97.0248 8.148 97.2648 8.452C97.5048 8.748 97.6808 9.096 97.7928 9.496C97.9128 9.888 97.9768 10.304 97.9848 10.744C97.9928 10.968 97.9968 11.204 97.9968 11.452C98.0048 11.692 98.0048 11.932 97.9968 12.172C97.9968 12.412 97.9928 12.64 97.9848 12.856C97.9768 13.296 97.9128 13.712 97.7928 14.104C97.6808 14.496 97.5048 14.844 97.2648 15.148C97.0328 15.452 96.7248 15.692 96.3408 15.868C95.9648 16.036 95.4968 16.12 94.9368 16.12ZM94.9368 15.1C95.5608 15.1 96.0208 14.896 96.3168 14.488C96.6208 14.072 96.7768 13.508 96.7848 12.796C96.8008 12.564 96.8088 12.34 96.8088 12.124C96.8088 11.9 96.8088 11.68 96.8088 11.464C96.8088 11.24 96.8008 11.02 96.7848 10.804C96.7768 10.108 96.6208 9.552 96.3168 9.136C96.0208 8.712 95.5608 8.5 94.9368 8.5C94.3208 8.5 93.8608 8.712 93.5568 9.136C93.2608 9.552 93.1048 10.108 93.0888 10.804C93.0888 11.02 93.0848 11.24 93.0768 11.464C93.0768 11.68 93.0768 11.9 93.0768 12.124C93.0848 12.34 93.0888 12.564 93.0888 12.796C93.1048 13.508 93.2648 14.072 93.5688 14.488C93.8728 14.896 94.3288 15.1 94.9368 15.1ZM99.614 16C99.534 16 99.466 15.976 99.41 15.928C99.362 15.872 99.338 15.804 99.338 15.724V15.34C99.338 15.268 99.358 15.188 99.398 15.1C99.438 15.012 99.518 14.916 99.638 14.812L102.182 12.268C102.59 11.924 102.91 11.632 103.142 11.392C103.382 11.144 103.55 10.908 103.646 10.684C103.75 10.46 103.802 10.228 103.802 9.988C103.802 9.532 103.674 9.172 103.418 8.908C103.162 8.636 102.782 8.5 102.278 8.5C101.958 8.5 101.682 8.568 101.45 8.704C101.218 8.832 101.034 9.012 100.898 9.244C100.77 9.468 100.686 9.724 100.646 10.012C100.63 10.116 100.586 10.188 100.514 10.228C100.45 10.268 100.39 10.288 100.334 10.288H99.71C99.638 10.288 99.578 10.268 99.53 10.228C99.482 10.18 99.458 10.124 99.458 10.06C99.466 9.756 99.53 9.452 99.65 9.148C99.77 8.836 99.946 8.556 100.178 8.308C100.418 8.06 100.71 7.86 101.054 7.708C101.406 7.548 101.814 7.468 102.278 7.468C102.91 7.468 103.426 7.584 103.826 7.816C104.234 8.04 104.534 8.34 104.726 8.716C104.918 9.092 105.014 9.504 105.014 9.952C105.014 10.304 104.954 10.628 104.834 10.924C104.714 11.212 104.538 11.496 104.306 11.776C104.082 12.048 103.802 12.328 103.466 12.616L101.162 14.956H104.906C104.994 14.956 105.062 14.98 105.11 15.028C105.166 15.076 105.194 15.144 105.194 15.232V15.724C105.194 15.804 105.166 15.872 105.11 15.928C105.062 15.976 104.994 16 104.906 16H99.614Z" fill="#AAAAAA"/>
</svg>
