<svg width="103" height="101" viewBox="0 0 103 101" fill="none" xmlns="http://www.w3.org/2000/svg">
<g clip-path="url(#clip0_1_7264)">
<path d="M74.7801 82.9467C69.064 87.5583 63.4623 92.1102 57.824 96.6164C55.9247 98.1368 53.9934 99.6389 51.9431 100.944C51.5678 101.182 50.4557 100.546 49.8516 100.088C44.9593 96.36 40.0349 92.6781 35.2753 88.781C31.9985 86.0974 28.8818 83.2078 25.8705 80.2265C21.8019 76.192 17.7288 72.1346 13.9943 67.7979C11.4085 64.7892 9.12026 61.4416 7.18895 57.9704C4.97847 54.0045 2.87783 49.8693 1.54605 45.5554C0.406492 41.8369 -0.156425 37.7337 0.0357905 33.8458C0.255465 29.3854 0.90076 24.6914 2.61239 20.6249C4.4842 16.1874 7.25302 11.8323 10.6031 8.39312C14.8226 4.06553 20.3145 0.96066 26.4791 0.369909C31.8932 -0.14757 37.5178 -0.458973 42.639 2.22459C45.4764 3.71292 48.1812 5.44395 50.9866 6.98723C51.339 7.17957 52.1079 7.09714 52.4145 6.83153C58.1443 1.87655 64.881 -0.115513 72.3317 0.00355263C77.4574 0.0859829 82.2308 1.49646 86.6105 4.13881C92.1802 7.49555 96.711 12.0063 99.4935 17.8406C102.093 23.2901 103.567 29.2205 102.789 35.3341C102.139 40.4631 101.443 45.6837 99.878 50.5837C97.2831 58.726 92.3861 65.4212 85.1277 70.2113C81.3566 72.7025 77.1782 73.8199 72.8168 72.9452C67.7551 71.9331 63.5996 69.0114 60.7118 64.7525C57.8652 60.5532 55.5082 56.0195 52.8127 51.7148C52.3962 51.0508 51.307 50.4692 50.5061 50.4417C46.2499 50.3135 46.2453 50.3822 46.2453 54.5953C46.2453 57.8009 46.3094 61.0065 46.1995 64.2076C46.1858 64.6747 45.3712 65.4807 44.8998 65.499C42.1584 65.6226 39.4079 65.5952 36.6666 65.5082C36.2821 65.4944 35.5956 64.8625 35.5956 64.5144C35.5407 52.0354 35.5407 39.5564 35.5956 27.0773C35.5956 26.7476 36.2547 26.1477 36.6162 26.1385C39.3988 26.0607 42.1859 26.0378 44.9639 26.1523C45.4032 26.1706 46.1721 26.9445 46.1812 27.3887C46.2819 31.1622 46.1858 34.9448 46.3048 38.7183C46.3185 39.222 47.1103 39.941 47.6823 40.1196C48.442 40.3623 49.3711 40.0372 50.1766 40.2021C52.2131 40.6234 53.1742 39.538 53.9934 37.9077C55.943 34.0198 57.9796 30.1776 59.9933 26.3171C60.0482 26.2164 60.213 26.1156 60.3274 26.1111C64.1168 26.1019 67.9061 26.1019 71.9198 26.1019C69.6315 30.37 67.4897 34.3999 65.3112 38.4115C64.1717 40.5089 62.6797 42.4735 61.9246 44.6945C61.5951 45.6653 62.5195 47.2453 63.1969 48.3535C65.5629 52.2552 67.6453 56.4454 70.62 59.8388C75.073 64.9266 79.8647 62.8704 83.32 58.9137C85.6998 56.1889 87.6631 52.9513 89.1826 49.6541C92.2672 42.9589 93.5669 35.9248 92.0338 28.497C90.6974 22.0216 87.4069 17.0575 81.8555 13.4351C76.9815 10.257 71.8099 9.63416 66.3043 10.9805C60.7987 12.3269 56.1947 15.2898 52.0713 19.1091C51.8104 19.3518 50.8035 19.219 50.4832 18.9076C46.4329 15.0196 41.7282 12.3223 36.2867 10.953C31.1564 9.66163 26.4425 10.4401 21.7149 13.0413C15.921 16.2286 12.722 21.1973 11.1065 27.1781C9.33536 33.7496 10.333 40.3028 12.8181 46.6316C15.1339 52.5208 18.6349 57.659 22.9094 62.2384C27.7743 67.4544 32.7261 72.5972 37.8748 77.5292C41.2157 80.7303 44.9822 83.4963 48.5427 86.4683C51.2292 88.7123 51.2337 88.7352 55.5815 85.4746C57.4304 84.087 59.2656 82.672 61.0413 81.1974C62.4051 80.0617 63.7644 78.8893 64.9543 77.5796C65.8147 76.6271 66.5332 76.3706 67.5629 77.1949C69.8649 79.045 72.1806 80.8768 74.7756 82.9467H74.7801Z" fill="#E50C54"/>
</g>
<defs>
<clipPath id="clip0_1_7264">
<rect width="103" height="101" fill="white"/>
</clipPath>
</defs>
</svg>
