<svg width="54" height="54" viewBox="0 0 54 54" fill="none" xmlns="http://www.w3.org/2000/svg">
<path d="M6.85844 40.0356C8.47304 38.9556 10.0174 37.9188 11.5618 36.882C13.036 35.8938 14.5048 34.9002 15.979 33.912C18.7114 32.0868 21.9838 32.2812 24.43 34.4844C25.4668 35.4186 26.6008 35.8506 27.9508 35.4294C28.4044 35.289 28.8472 35.0136 29.209 34.7004C32.1844 32.1732 35.1382 29.6244 38.1028 27.0864C40.9 24.6888 44.4046 24.6834 47.2126 27.0648C47.3746 27.1998 47.5366 27.3348 47.785 27.54C47.7958 27.2916 47.812 27.1188 47.812 26.9406C47.812 25.4988 47.8012 24.057 47.8174 22.6152C47.8336 21.3786 48.838 20.5686 49.9504 20.8656C50.6254 21.0492 51.1222 21.6486 51.1762 22.3506C51.1816 22.437 51.187 22.5288 51.187 22.6152C51.1762 26.8866 51.1978 31.158 51.1492 35.4294C51.1222 37.5408 50.8036 39.6306 50.1826 41.6556C48.7948 46.1754 45.787 49.0212 41.2564 50.2902C39.4204 50.8032 37.5412 51.111 35.6404 51.1272C29.8894 51.165 24.1438 51.1866 18.3928 51.1218C15.7846 51.0948 13.2196 50.6304 10.795 49.5936C7.15004 48.0438 4.90904 45.2736 3.79124 41.5314C3.19724 39.5496 2.87324 37.5138 2.86244 35.4564C2.82464 29.8134 2.81924 24.1704 2.86244 18.5274C2.87864 16.2756 3.25124 14.0562 3.96944 11.9016C5.37884 7.69498 8.25164 5.03278 12.4744 3.77998C14.494 3.18058 16.5622 2.87278 18.6574 2.84578C22.1728 2.79718 25.6882 2.81338 29.2036 2.81338C30.0568 2.81338 30.7372 3.36418 30.8992 4.12018C31.0666 4.91398 30.6724 5.71318 29.9164 6.01558C29.614 6.13438 29.2684 6.17758 28.939 6.17758C25.807 6.19378 22.6804 6.18298 19.5484 6.19378C17.518 6.19918 15.5146 6.39898 13.5544 6.94978C9.96344 7.95958 7.77104 10.314 6.85304 13.8996C6.40484 15.6654 6.20504 17.4582 6.19964 19.2726C6.19424 24.6348 6.19424 29.997 6.22124 35.3538C6.22664 36.8982 6.43184 38.4318 6.84764 40.0248L6.85844 40.0356ZM8.19224 43.2378C9.03464 44.5554 10.1146 45.5166 11.4376 46.197C13.6948 47.3526 16.141 47.736 18.6304 47.763C23.7766 47.8224 28.9282 47.8278 34.0798 47.7792C35.7754 47.763 37.4872 47.6172 39.1612 47.331C43.519 46.5858 46.2676 44.0586 47.2558 39.69C47.8066 37.2546 47.8444 34.7814 47.8066 32.2974C47.8066 32.1246 47.6554 31.914 47.515 31.7898C46.6618 31.0338 45.787 30.294 44.923 29.5488C43.546 28.3662 41.8018 28.377 40.4194 29.5596C37.4062 32.1462 34.3984 34.7382 31.3744 37.314C30.937 37.6866 30.4456 38.016 29.9326 38.2752C27.724 39.3984 24.5596 39.2526 22.2214 37.044C20.9092 35.802 19.3378 35.7372 17.842 36.7416C16.168 37.8702 14.4886 38.9988 12.8146 40.122C11.2864 41.148 9.75824 42.1794 8.19224 43.2324V43.2378Z" fill="#E50C54"/>
<path d="M20.2391 24.1704C16.8317 24.1596 14.0669 21.4003 14.0615 18.0037C14.0561 14.5909 16.8533 11.7991 20.2769 11.8045C23.6735 11.8099 26.4491 14.5855 26.4545 17.982C26.4599 21.4002 23.6735 24.1812 20.2445 24.1704H20.2391ZM20.2607 20.7954C21.8159 20.7954 23.0795 19.5319 23.0741 17.9875C23.0687 16.4431 21.7943 15.1795 20.2499 15.1849C18.7055 15.1849 17.4365 16.4647 17.4419 18.0037C17.4419 19.5535 18.7109 20.8008 20.2661 20.7954H20.2607Z" fill="#E50C54"/>
<path d="M42.2006 8.53202C42.2006 8.88842 42.2006 9.07742 42.2006 9.26102C42.2006 12.1446 42.2006 15.0228 42.2006 17.9064C42.2006 18.7434 41.7092 19.4022 40.9694 19.6128C40.262 19.8126 39.4628 19.5372 39.1064 18.8784C38.9336 18.5544 38.8418 18.1494 38.8364 17.7768C38.8148 14.9472 38.8256 12.1176 38.8256 9.29342C38.8256 9.10442 38.8256 8.91002 38.8256 8.56982C38.264 9.13142 37.8158 9.62822 37.3082 10.0656C37.0112 10.3194 36.644 10.5516 36.2768 10.6326C35.5316 10.7946 34.8404 10.4058 34.5218 9.76862C34.1978 9.12602 34.3004 8.35922 34.8242 7.81922C35.3696 7.24682 35.942 6.69602 36.4982 6.13982C37.4162 5.21642 38.3288 4.29302 39.2414 3.36962C39.9704 2.62982 41.045 2.61362 41.7794 3.34802C43.232 4.80062 44.6846 6.25862 46.1264 7.72202C46.8716 8.47802 46.8878 9.53642 46.1912 10.2114C45.5108 10.8702 44.474 10.827 43.7396 10.1034C43.259 9.62822 42.7946 9.14222 42.2114 8.54282L42.2006 8.53202Z" fill="#E50C54"/>
</svg>
