<svg width="47" height="49" viewBox="0 0 47 49" fill="none" xmlns="http://www.w3.org/2000/svg">
<path d="M29.5582 7.39136C25.228 4.92239 21.8645 3.00458 19.1328 1.76044C16.3909 0.511645 14.0109 -0.193586 11.6966 0.0466362C8.02353 0.427891 4.67975 2.33105 2.50068 5.29301C1.12429 7.16392 0.551206 9.56519 0.275039 12.538C-2.23331e-05 15.499 -1.24884e-05 19.3366 1.77595e-07 24.2721V24.4778C-1.27864e-05 29.4132 -2.28733e-05 33.2509 0.275038 36.2119C0.551204 39.1847 1.12429 41.586 2.50068 43.4569C4.67974 46.4188 8.02353 48.322 11.6966 48.7033C14.0109 48.9435 16.3909 48.2383 19.1328 46.9894C21.8645 45.7453 25.228 43.8275 29.5581 41.3586L29.7338 41.2584C34.0637 38.7896 37.4273 36.8717 39.8844 35.1573C42.3486 33.438 44.165 31.7507 45.1174 29.6381C46.6275 26.2884 46.6275 22.4615 45.1174 19.1118C44.165 16.9992 42.3486 15.3119 39.8844 13.5926C37.4273 11.8781 34.0637 9.96029 29.7338 7.49151L29.5582 7.39136Z" fill="white"/>
</svg>
