<svg width="16" height="16" viewBox="0 0 16 16" fill="none" xmlns="http://www.w3.org/2000/svg">
<path d="M15.1642 4.09318C15.6225 1.70323 13.5243 -0.394985 11.1343 0.063369L4.27255 1.37935C2.78092 1.66542 1.58801 2.79451 1.20902 4.26164C0.452334 7.19082 3.16886 9.86791 6.08568 9.01013C6.16623 8.98645 6.24107 9.06128 6.21738 9.14184C5.35962 12.0587 8.03669 14.7752 10.9659 14.0185C12.433 13.6395 13.5621 12.4466 13.8482 10.955L15.1642 4.09318Z" fill="white"/>
<path d="M2.02091 10.8201C2.24058 10.6005 2.24058 10.2443 2.02091 10.0247C1.80124 9.80498 1.44508 9.80498 1.22541 10.0247L0.164753 11.0853C-0.0549175 11.305 -0.0549175 11.6611 0.164752 11.8808C0.384422 12.1005 0.740578 12.1005 0.960247 11.8808L2.02091 10.8201Z" fill="white"/>
<path d="M4.67256 10.555C4.89223 10.7747 4.89223 11.1308 4.67256 11.3505L3.6119 12.4111C3.39223 12.6308 3.03607 12.6308 2.8164 12.4111C2.59673 12.1915 2.59673 11.8353 2.8164 11.6156L3.87706 10.555C4.09673 10.3353 4.45289 10.3353 4.67256 10.555Z" fill="white"/>
<path d="M5.20289 14.0021C5.42256 13.7825 5.42256 13.4263 5.20289 13.2066C4.98322 12.987 4.62706 12.987 4.40739 13.2066L3.34673 14.2673C3.12706 14.487 3.12706 14.8431 3.34673 15.0628C3.5664 15.2825 3.92256 15.2825 4.14223 15.0628L5.20289 14.0021Z" fill="white"/>
</svg>
